<svg width="205" height="41" viewBox="0 0 205 41" fill="none" xmlns="http://www.w3.org/2000/svg">
<g clip-path="url(#clip0_26795_123)">
<path d="M18.8461 37.6921C29.2545 37.6921 37.6921 29.2545 37.6921 18.8461C37.6921 8.43767 29.2545 0 18.8461 0C8.43767 0 0 8.43767 0 18.8461C0 29.2545 8.43767 37.6921 18.8461 37.6921Z" fill="#A7CB3B"/>
<path fill-rule="evenodd" clip-rule="evenodd" d="M29.1737 11.3073C28.9475 10.5535 28.5706 9.875 28.0429 9.34731C27.5152 8.81962 26.9122 8.36731 26.2337 7.99039C24.8768 7.38732 23.2937 7.38732 21.9368 7.99039C20.5799 8.59347 19.5245 9.79961 19.0722 11.2319C18.9214 11.6088 18.846 11.9858 18.846 12.2873V23.9719C18.846 24.3488 18.846 24.6503 18.6953 25.0272C18.6953 25.3288 18.5445 25.7057 18.3937 26.0072C18.0922 26.6103 17.7153 27.2134 17.1876 27.6657C16.2076 28.5703 14.7753 29.098 13.4184 29.0226C12.7399 29.0226 12.0615 28.7965 11.4584 28.4195C10.8553 28.118 10.3276 27.5903 9.87531 27.0626C9.64915 26.7611 9.49838 26.4595 9.34762 26.158C9.19685 25.8565 9.04608 25.5549 8.97069 25.178C8.74454 24.4995 8.74454 23.8211 8.81993 23.1426C8.81993 22.7657 8.97069 22.4642 9.04608 22.1626C9.12146 21.8611 9.27223 21.5596 9.423 21.258C9.57377 20.9565 9.79992 20.7303 9.95069 20.4288C10.1768 20.2026 10.403 19.9765 10.6291 19.7503C11.6091 18.9211 12.8153 18.6196 14.0968 18.6196H18.0922V17.1873C16.7353 17.1873 15.4537 17.338 14.0968 17.4134C13.343 17.4134 12.6645 17.6396 11.9107 17.9411C11.5338 18.0919 11.2322 18.2427 10.9307 18.4688C10.6291 18.695 10.3276 18.9211 10.1015 19.1473C9.79992 19.3734 9.57377 19.675 9.423 19.9765C9.19685 20.278 9.04608 20.5796 8.89531 20.9565C8.59377 21.6349 8.36762 22.3134 8.29224 23.0672C8.29224 23.8211 8.29224 24.5749 8.443 25.3288C8.59377 26.0826 8.89531 26.8365 9.34762 27.4395C9.79992 28.118 10.3276 28.6457 11.0061 29.098C11.6845 29.5503 12.4384 29.8518 13.2676 30.0026H14.4737C14.9261 30.0026 15.303 29.9272 15.7553 29.7764C16.1322 29.6257 16.5845 29.4749 16.9614 29.3241C17.3383 29.098 17.7153 28.8718 18.0168 28.6457C18.6953 28.118 19.223 27.3642 19.5999 26.6103C19.5999 26.5349 19.6753 26.3842 19.7506 26.3088C19.7506 26.2334 19.826 26.0826 19.9014 26.0072C19.9768 25.7811 20.0522 25.5549 20.1276 25.4042C20.2783 24.9519 20.2783 24.5749 20.3537 24.1226V21.7857L20.4291 19.675V15.4534C20.5045 15.4534 20.5799 13.3427 20.5799 13.3427V13.0411V12.5134C20.5799 12.2873 20.6553 12.0611 20.7306 11.835C20.8814 11.3827 21.1076 11.0058 21.4091 10.6288C21.7106 10.2519 22.0876 10.0258 22.5399 9.79961C22.9168 9.64885 23.3691 9.49808 23.8968 9.49808C24.3491 9.49808 24.8014 9.57346 25.2537 9.79961C25.706 9.95038 26.0829 10.2519 26.3845 10.6288C26.686 11.0058 26.9875 11.3827 27.1383 11.835C27.2891 12.2873 27.3645 12.815 27.3645 13.2673C27.3645 13.795 27.2137 14.2473 26.9875 14.6996C26.7614 15.1519 26.4598 15.5288 26.0829 15.9057C25.706 16.2073 25.2537 16.5088 24.8014 16.5842C24.5752 16.5842 24.3491 16.735 24.0475 16.735H21.2583V18.4688H24.2737C24.6506 18.4688 25.0275 18.4688 25.4045 18.318C26.1583 18.1673 26.8368 17.7903 27.4398 17.338C28.0429 16.8857 28.4952 16.2827 28.8721 15.6042C29.5506 14.2473 29.7014 12.5888 29.2491 11.1565" fill="#F15A22"/>
<path fill-rule="evenodd" clip-rule="evenodd" d="M77.118 24.6505H79.5303V16.509H77.118V24.6505ZM78.3242 15.6043C77.5703 15.6043 76.8919 14.9259 76.8919 14.172C76.8919 13.4182 77.4949 12.7397 78.3242 12.7397C79.1534 12.7397 79.7565 13.4182 79.7565 14.172C79.7565 14.9259 79.1534 15.6043 78.3242 15.6043ZM49.8289 18.3936H48.3212V15.3782H49.8289C50.8089 15.3782 51.5628 15.9059 51.5628 16.8859C51.5628 17.8659 50.8843 18.3936 49.8289 18.3936ZM54.0504 16.8859C54.0504 14.549 52.3166 13.1921 49.8289 13.1921H45.9089V24.7258H48.3966V20.6551H49.8289C52.3166 20.6551 54.0504 19.2982 54.0504 16.9613V16.8859ZM58.4981 18.2428C59.4781 18.2428 60.2319 18.8459 60.3073 19.7505H56.6889C56.7643 18.9966 57.5935 18.2428 58.4981 18.2428ZM58.6489 24.8766C60.4581 24.8766 61.7396 24.0474 62.4181 22.6905L60.3827 21.8612C60.0058 22.4643 59.5535 22.8412 58.6489 22.8412C57.7443 22.8412 56.7643 22.1628 56.6889 21.1828H62.6442V20.5797C62.6442 18.0166 60.9104 16.2074 58.4981 16.2074C56.0858 16.2074 54.2766 18.0166 54.2766 20.5043C54.2766 22.992 56.0858 24.8012 58.5735 24.8012L58.6489 24.8766ZM68.9765 18.9213C68.8258 18.9213 68.5996 18.8459 68.3734 18.8459C67.0165 18.8459 66.2627 19.8259 66.2627 21.4089V24.7258H63.8504V16.5843H66.1873V17.9413C66.6396 17.0366 67.4688 16.4336 68.5242 16.4336C69.5796 16.4336 68.9011 16.4336 68.9011 16.4336V18.9213H68.9765ZM72.595 19.4489C72.1427 19.2982 71.9165 19.1474 71.9165 18.8459C71.9165 18.5443 72.218 18.3182 72.6704 18.3182C73.1227 18.3182 73.7257 18.6951 73.9519 19.2982L75.9119 18.2428C75.3842 17.112 74.1027 16.3582 72.6704 16.3582C71.2381 16.3582 69.5042 17.4136 69.5042 18.9966C69.5042 20.5797 70.2581 21.1074 71.8411 21.4843L72.8211 21.7105C73.3488 21.8612 73.575 22.012 73.575 22.3135C73.575 22.6151 73.198 22.9166 72.7457 22.9166C72.2934 22.9166 71.5396 22.4643 71.2381 21.7859L69.2781 22.8412C69.8058 24.1228 71.0873 24.8012 72.7457 24.8012C74.4042 24.8012 75.9873 23.6705 75.9873 22.012C75.9873 20.3536 75.158 19.9766 73.6503 19.5997L72.595 19.3736V19.4489ZM83.8272 19.4489C83.3749 19.2982 83.1488 19.1474 83.1488 18.8459C83.1488 18.5443 83.4503 18.3182 83.9026 18.3182C84.3549 18.3182 84.958 18.6951 85.1841 19.2982L87.1441 18.2428C86.6164 17.112 85.3349 16.3582 83.9026 16.3582C82.4703 16.3582 80.7365 17.4136 80.7365 18.9966C80.7365 20.5797 81.4903 21.1074 83.0734 21.4843L84.0534 21.7105C84.5811 21.8612 84.8072 22.012 84.8072 22.3135C84.8072 22.6151 84.4303 22.9166 83.978 22.9166C83.5257 22.9166 82.7718 22.4643 82.4703 21.7859L80.5103 22.8412C81.038 24.1228 82.3195 24.8012 83.978 24.8012C85.6364 24.8012 87.2195 23.6705 87.2195 22.012C87.2195 20.3536 86.3903 19.9766 84.8826 19.5997L83.8272 19.3736V19.4489ZM91.2149 14.172V16.5843H93.2503V18.5443H91.2149V21.5597C91.2149 22.4643 91.5918 22.7659 92.421 22.7659C93.2503 22.7659 93.0241 22.6905 93.3256 22.5397V24.6505C92.9487 24.8012 92.421 24.952 91.6672 24.952C89.9334 24.952 88.878 23.8966 88.878 22.0874V18.6197H87.7472V16.6597H88.878V14.2474H91.2903L91.2149 14.172ZM97.9995 18.2428C98.9795 18.2428 99.7333 18.8459 99.8087 19.7505H96.1902C96.2656 18.9966 97.0949 18.2428 97.9995 18.2428ZM98.1502 24.8766C99.9595 24.8766 101.241 24.0474 101.919 22.6905L99.8841 21.8612C99.5072 22.4643 99.0548 22.8412 98.1502 22.8412C97.2456 22.8412 96.2656 22.1628 96.1902 21.1828H102.146V20.5797C102.146 18.0166 100.412 16.2074 97.9995 16.2074C95.5872 16.2074 93.778 18.0166 93.778 20.5043C93.778 22.992 95.5872 24.8012 98.0749 24.8012L98.1502 24.8766ZM105.764 24.6505H103.352V16.509H105.764V17.5643C106.292 16.8105 107.046 16.2828 108.176 16.2828C110.061 16.2828 111.192 17.5643 111.192 19.5997V24.6505H108.779V20.2028C108.779 19.1474 108.252 18.5443 107.347 18.5443C106.443 18.5443 105.839 19.2228 105.839 20.3536V24.6505H105.764ZM115.413 16.5843V14.172H113.001V16.5843H111.87V18.5443H113.001V22.012C113.001 23.8212 114.056 24.8766 115.79 24.8766C117.524 24.8766 117.072 24.7258 117.449 24.5751V22.4643C117.222 22.6151 116.846 22.6905 116.544 22.6905C115.715 22.6905 115.338 22.3135 115.338 21.4843V18.469H117.373V16.509H115.338L115.413 16.5843Z" fill="#4D4D4E"/>
<path d="M132.239 20.3536H127.701V24.7787H125.379V13.5615H132.767V15.7703H127.701V18.1449H132.239V20.3536Z" fill="#4D4D4E"/>
<path d="M137.599 16.9614C139.906 16.9614 141.752 18.65 141.752 20.9266C141.752 23.2032 139.875 24.9522 137.569 24.9522C135.262 24.9522 133.4 23.2786 133.4 20.9719C133.4 18.6651 135.277 16.9614 137.599 16.9614ZM137.584 22.9017C138.632 22.9017 139.461 22.1026 139.461 20.9417C139.461 19.7808 138.616 18.9968 137.569 18.9968C136.521 18.9968 135.692 19.7959 135.692 20.9417C135.692 22.0876 136.536 22.9017 137.584 22.9017Z" fill="#4D4D4E"/>
<path d="M145.22 21.4015C145.22 22.2458 145.605 22.864 146.54 22.864C147.474 22.864 147.912 22.1931 147.912 21.4015V17.1348H150.143V24.7787H147.934V23.8364H147.919C147.143 24.9521 145.997 24.937 145.786 24.937C143.879 24.937 142.981 23.5047 142.981 21.9292V17.1348H145.213V21.4015H145.22Z" fill="#4D4D4E"/>
<path d="M156.867 20.5418C156.867 19.6824 156.453 19.0492 155.533 19.0492C154.613 19.0492 154.161 19.7503 154.161 20.5418V24.7784H151.929V17.1344H154.146V18.1371H154.161C154.749 17.1043 156.023 16.9912 156.324 16.9912C158.269 16.9912 159.091 18.4537 159.091 20.0292V24.7859H156.875V20.5493L156.867 20.5418Z" fill="#4D4D4E"/>
<path d="M166.343 23.8065C165.627 24.8543 164.481 24.9222 163.968 24.9222C161.752 24.9222 160.327 23.0074 160.327 20.9419C160.327 19.012 161.805 16.9917 163.991 16.9917C164.436 16.9917 165.499 17.0746 166.283 18.0094H166.313V13.1245H168.529V24.7789H166.366V23.8065H166.336H166.343ZM164.481 19.012C163.433 19.012 162.589 19.796 162.589 20.9419C162.589 22.0877 163.433 22.9019 164.481 22.9019C165.529 22.9019 166.373 22.1028 166.373 20.9419C166.373 19.7809 165.529 19.012 164.481 19.012Z" fill="#4D4D4E"/>
<path d="M169.901 22.6454V22.6152C169.901 20.7231 171.763 20.2633 173.308 20.2633H174.07C174.484 20.2633 174.673 20.022 174.673 19.7054C174.673 19.2154 174.288 18.7631 173.444 18.7631C172.645 18.7631 172.11 19.125 171.741 19.7959L170.037 18.7782C170.655 17.6474 171.816 16.9614 173.542 16.9614C175.487 16.9614 176.867 17.9791 176.867 20.0371V24.7788H174.801V23.8365L174.771 23.8214C174.198 24.6355 173.308 24.922 172.479 24.922C171.107 24.922 169.901 24.0626 169.901 22.6454ZM174.65 21.8162V21.6428H173.301C172.698 21.6428 172.14 21.9142 172.14 22.5172C172.14 23.06 172.585 23.2937 173.112 23.2937C174.1 23.2937 174.643 22.6228 174.643 21.8162H174.65Z" fill="#4D4D4E"/>
<path d="M183.206 24.7335C182.822 24.8466 182.505 24.8768 182.159 24.8768C180.123 24.8768 179.121 23.746 179.121 21.9971V19.0646H177.749V17.1348H179.151V14.7451H181.359V17.1348H183.252V19.0646H181.359V21.7257C181.359 22.6303 181.849 22.9469 182.694 22.9469C182.807 22.9469 183.025 22.9319 183.206 22.8866V24.7335Z" fill="#4D4D4E"/>
<path d="M185.739 13.0791C186.523 13.0791 187.142 13.6973 187.142 14.4662C187.142 15.2351 186.523 15.8382 185.739 15.8382C184.993 15.8382 184.367 15.22 184.367 14.4662C184.367 13.7123 185.001 13.0791 185.739 13.0791ZM186.885 17.1348H184.639V24.7787H186.885V17.1348Z" fill="#4D4D4E"/>
<path d="M192.388 16.9614C194.695 16.9614 196.542 18.65 196.542 20.9266C196.542 23.2032 194.665 24.9522 192.358 24.9522C190.051 24.9522 188.189 23.2786 188.189 20.9719C188.189 18.6651 190.067 16.9614 192.388 16.9614ZM192.373 22.9017C193.421 22.9017 194.25 22.1026 194.25 20.9417C194.25 19.7808 193.406 18.9968 192.358 18.9968C191.31 18.9968 190.481 19.7959 190.481 20.9417C190.481 22.0876 191.325 22.9017 192.373 22.9017Z" fill="#4D4D4E"/>
<path d="M202.784 20.5418C202.784 19.6824 202.369 19.0492 201.45 19.0492C200.53 19.0492 200.078 19.7503 200.078 20.5418V24.7784H197.846V17.1344H200.062V18.1371H200.078C200.666 17.1043 201.94 16.9912 202.241 16.9912C204.186 16.9912 205.008 18.4537 205.008 20.0292V24.7859H202.791V20.5493L202.784 20.5418Z" fill="#4D4D4E"/>
<path opacity="0.5" d="M45.9089 35.7093L47.0849 35.0987C47.4694 36.056 48.2232 36.5687 49.1881 36.5687C50.0701 36.5687 50.7335 36.1013 50.7335 35.3625C50.7335 34.6916 50.1907 34.3373 48.962 33.9528C48.0272 33.6588 47.3337 33.3271 46.8814 32.9276C46.4291 32.5356 46.2029 32.0155 46.2029 31.3144C46.2029 29.9047 47.492 28.7739 49.1429 28.7739C50.7938 28.7739 51.6607 29.6559 52.0452 30.651L50.8918 31.2767C50.5752 30.4927 50.0023 30.0328 49.1052 30.0328C48.2081 30.0328 47.6277 30.5379 47.6277 31.239C47.6277 31.9401 48.2835 32.3019 49.2635 32.5959C50.2887 32.905 51.0501 33.2291 51.5326 33.7116C51.9396 34.1036 52.1658 34.6087 52.1658 35.2947C52.1658 36.5837 51.0953 37.8502 49.158 37.8502C47.6126 37.8502 46.3989 37.0813 45.9014 35.7244L45.9089 35.7093Z" fill="#4D4D4E"/>
<path opacity="0.5" d="M54.3671 35.1141C54.3897 36.0413 55.2491 36.6821 56.1311 36.6821C56.8623 36.6821 57.4051 36.4107 57.7594 35.7398L58.7318 36.3805C58.2117 37.3379 57.2091 37.8354 56.1537 37.8354C54.3671 37.8354 52.9875 36.4936 52.9875 34.6919C52.9875 32.8902 54.2766 31.5635 56.0255 31.5635C57.9026 31.5635 58.9655 32.8601 58.9655 34.6844C58.9655 34.7372 58.9655 34.9558 58.9429 35.099H54.3671V35.1141ZM54.4349 34.0964H57.6011C57.5558 33.237 56.8698 32.7319 56.0331 32.7319C55.1963 32.7319 54.5631 33.2747 54.4425 34.0964H54.4349Z" fill="#4D4D4E"/>
<path opacity="0.5" d="M63.4208 33.0556C63.3077 33.033 63.1041 33.0179 63.0363 33.0179C62.0111 33.0179 61.4683 33.6285 61.4683 34.6688V37.7294H60.1265V31.6912H61.4381V32.6485C61.8075 31.9701 62.4408 31.6309 63.0966 31.6309C63.172 31.6309 63.3454 31.6384 63.4208 31.6686V33.0481V33.0556Z" fill="#4D4D4E"/>
<path opacity="0.5" d="M66.8583 36.1693L68.6298 31.7065H70.0395L67.5216 37.7448H66.1798L63.6243 31.7065H65.0792L66.8507 36.1693H66.8583Z" fill="#4D4D4E"/>
<path opacity="0.5" d="M71.6073 28.8569C72.0898 28.8569 72.4893 29.264 72.4893 29.7465C72.4893 30.2289 72.0973 30.6285 71.6073 30.6285C71.1173 30.6285 70.7253 30.2365 70.7253 29.7465C70.7253 29.2565 71.1173 28.8569 71.6073 28.8569ZM70.944 31.6989V37.7372H72.2858V31.6989H70.944Z" fill="#4D4D4E"/>
<path opacity="0.5" d="M73.4543 34.7066C73.4543 33.0255 74.7962 31.5781 76.5979 31.5781C78 31.5781 78.9725 32.3697 79.3117 33.3873L78.1583 33.9075C77.9699 33.3798 77.5929 32.7993 76.6129 32.7993C75.6329 32.7993 74.8414 33.5683 74.8414 34.684C74.8414 35.7996 75.5953 36.6138 76.628 36.6138C77.5779 36.6138 77.9699 36.0484 78.1885 35.4981L79.3645 36.0183C79.0705 36.8399 78.2111 37.835 76.6054 37.835C74.8339 37.835 73.4619 36.4781 73.4619 34.7066H73.4543Z" fill="#4D4D4E"/>
<path opacity="0.5" d="M81.3998 35.1141C81.4224 36.0413 82.2818 36.6821 83.1638 36.6821C83.895 36.6821 84.4378 36.4107 84.7921 35.7398L85.7645 36.3805C85.2444 37.3379 84.2418 37.8354 83.1864 37.8354C81.3998 37.8354 80.0203 36.4936 80.0203 34.6919C80.0203 32.8902 81.3093 31.5635 83.0582 31.5635C84.9353 31.5635 85.9982 32.8601 85.9982 34.6844C85.9982 34.7372 85.9982 34.9558 85.9756 35.099H81.3998V35.1141ZM81.4676 34.0964H84.6338C84.5885 33.237 83.9026 32.7319 83.0658 32.7319C82.229 32.7319 81.5958 33.2747 81.4752 34.0964H81.4676Z" fill="#4D4D4E"/>
<path opacity="0.5" d="M91.7276 35.5812C91.7276 36.3275 92.1045 36.5838 92.7679 36.5838C92.8885 36.5838 93.0317 36.5763 93.1976 36.5386V37.6769C92.9639 37.7673 92.6473 37.7975 92.4739 37.7975C91.1773 37.7975 90.3857 37.119 90.3857 35.7847V32.9051H89.2776V31.6989H90.3857V29.8369H91.7276V31.6989H93.2051V32.9051H91.7276V35.5737V35.5812Z" fill="#4D4D4E"/>
<path opacity="0.5" d="M97.0723 31.5781C98.7986 31.5781 100.238 32.9124 100.238 34.684C100.238 36.4555 98.8363 37.835 97.0647 37.835C95.2932 37.835 93.876 36.4932 93.876 34.7066C93.876 32.92 95.3234 31.5781 97.0723 31.5781ZM97.0723 36.6138C98.1653 36.6138 98.8664 35.7469 98.8664 34.7066C98.8664 33.6663 98.1578 32.7993 97.0572 32.7993C95.9566 32.7993 95.248 33.6437 95.248 34.684C95.248 35.7243 95.9717 36.6138 97.0647 36.6138H97.0723Z" fill="#4D4D4E"/>
<path opacity="0.5" d="M103.714 35.7093L104.89 35.0987C105.274 36.056 106.028 36.5687 106.993 36.5687C107.875 36.5687 108.538 36.1013 108.538 35.3625C108.538 34.6916 107.995 34.3373 106.767 33.9528C105.832 33.6588 105.138 33.3271 104.686 32.9276C104.234 32.5356 104.008 32.0155 104.008 31.3144C104.008 29.9047 105.297 28.7739 106.948 28.7739C108.598 28.7739 109.465 29.6559 109.85 30.651L108.696 31.2767C108.38 30.4927 107.807 30.0328 106.91 30.0328C106.013 30.0328 105.432 30.5379 105.432 31.239C105.432 31.9401 106.088 32.3019 107.068 32.5959C108.093 32.905 108.855 33.2291 109.337 33.7116C109.744 34.1036 109.97 34.6087 109.97 35.2947C109.97 36.5837 108.9 37.8502 106.963 37.8502C105.417 37.8502 104.204 37.0813 103.706 35.7244L103.714 35.7093Z" fill="#4D4D4E"/>
<path opacity="0.5" d="M113.981 31.5781C115.707 31.5781 117.147 32.9124 117.147 34.684C117.147 36.4555 115.745 37.835 113.973 37.835C112.202 37.835 110.785 36.4932 110.785 34.7066C110.785 32.92 112.232 31.5781 113.981 31.5781ZM113.981 36.6138C115.074 36.6138 115.775 35.7469 115.775 34.7066C115.775 33.6663 115.066 32.7993 113.966 32.7993C112.865 32.7993 112.157 33.6437 112.157 34.684C112.157 35.7243 112.88 36.6138 113.973 36.6138H113.981Z" fill="#4D4D4E"/>
<path opacity="0.5" d="M117.916 34.7066C117.916 33.0255 119.258 31.5781 121.06 31.5781C122.462 31.5781 123.434 32.3697 123.773 33.3873L122.62 33.9075C122.432 33.3798 122.055 32.7993 121.075 32.7993C120.095 32.7993 119.303 33.5683 119.303 34.684C119.303 35.7996 120.057 36.6138 121.09 36.6138C122.04 36.6138 122.432 36.0484 122.65 35.4981L123.826 36.0183C123.532 36.8399 122.673 37.835 121.067 37.835C119.296 37.835 117.924 36.4781 117.924 34.7066H117.916Z" fill="#4D4D4E"/>
<path opacity="0.5" d="M125.56 28.8569C126.042 28.8569 126.442 29.264 126.442 29.7465C126.442 30.2289 126.05 30.6285 125.56 30.6285C125.07 30.6285 124.678 30.2365 124.678 29.7465C124.678 29.2565 125.07 28.8569 125.56 28.8569ZM124.889 31.6989V37.7372H126.231V31.6989H124.889Z" fill="#4D4D4E"/>
<path opacity="0.5" d="M128.779 35.1141C128.802 36.0413 129.661 36.6821 130.543 36.6821C131.274 36.6821 131.817 36.4107 132.171 35.7398L133.144 36.3805C132.624 37.3379 131.621 37.8354 130.566 37.8354C128.779 37.8354 127.399 36.4936 127.399 34.6919C127.399 32.8902 128.688 31.5635 130.437 31.5635C132.314 31.5635 133.377 32.8601 133.377 34.6844C133.377 34.7372 133.377 34.9558 133.355 35.099H128.779V35.1141ZM128.847 34.0964H132.013C131.968 33.237 131.282 32.7319 130.445 32.7319C129.608 32.7319 128.975 33.2747 128.854 34.0964H128.847Z" fill="#4D4D4E"/>
<path opacity="0.5" d="M136.219 35.5812C136.219 36.3275 136.589 36.5838 137.26 36.5838C137.38 36.5838 137.523 36.5763 137.689 36.5386V37.6769C137.456 37.7673 137.139 37.7975 136.966 37.7975C135.669 37.7975 134.877 37.119 134.877 35.7847V32.9051H133.769V31.6989H134.877V29.8369H136.219V31.6989H137.697V32.9051H136.219V35.5737V35.5812Z" fill="#4D4D4E"/>
<path opacity="0.5" d="M143.32 31.6987H144.775L140.629 40.7072H139.197L140.855 37.0586L138.164 31.6987H139.702L141.579 35.6564L143.32 31.6987Z" fill="#4D4D4E"/>
</g>
<defs>
<clipPath id="clip0_26795_123">
<rect width="205" height="40.7075" fill="white"/>
</clipPath>
</defs>
</svg>
