<?xml version="1.0" encoding="utf-8"?>
<svg xmlns="http://www.w3.org/2000/svg" width="152.41" height="123.201" viewBox="0 0 152.41 123.201"><defs><style>.a{fill:#fff;}.b{fill:#ffcc29;}</style></defs><g transform="translate(-416.441 -694.488)"><g transform="translate(416.567 694.488)"><path class="a" d="M451.715,794.57l2.825-18.019h6.833l2.558,18.019h-4.454l-.4-4.088h-2.62l-.494,4.088Zm5.031-6h2.17l-1.02-9.312H457.7Z" transform="translate(-411.501 -682.702)"/><path class="a" d="M465.624,776.056v-18.2h7.514v1.992h-2.914v5.188h2.819v1.986h-2.819v6.769h2.914v2.262Z" transform="translate(-409.503 -685.387)"/><path class="a" d="M476.865,776.056l-3-18.2h4.751l1.005,12.6h.173l1.147-12.6h4.572l-3.119,18.2Z" transform="translate(-408.32 -685.387)"/><path class="a" d="M484.55,776.056l2.825-18.2h6.833l2.558,18.2h-4.454l-.4-4.128h-2.62l-.494,4.128ZM489.581,770h2.17l-1.02-9.406h-.193Z" transform="translate(-406.785 -685.387)"/><path class="a" d="M440.335,794.565V776.557h4.485v6.984l2.065-.051v-6.984l4.509.051v18.007l-4.509-.05v-9.031l-2.065.052v9.03Z" transform="translate(-413.135 -682.709)"/><path class="a" d="M466.114,794.558v-6.751l-3.821-11.257h4.565l1.3,7.851h.153l.969-7.851h4.427l-3.167,11.257v6.751Z" transform="translate(-409.982 -682.702)"/><path class="a" d="M427.518,794.57l2.825-18.019h6.834l2.558,18.019H435.28l-.4-4.088h-2.619l-.5,4.088Zm5.031-6h2.171l-1.02-9.312h-.193Z" transform="translate(-414.976 -682.702)"/><path class="a" d="M416.551,799.137a4.5,4.5,0,0,1,1.825-3.159,5.283,5.283,0,0,1,3.374-1.642,2.9,2.9,0,0,1,1,.159c.417.152.626.384.626.694a.591.591,0,0,1-.089.253c-.06.11-.112.165-.159.165a4.426,4.426,0,0,0-.783-.318,2.866,2.866,0,0,0-.853-.159,3.619,3.619,0,0,0-2.549,1.141,3.442,3.442,0,0,0-1.18,2.519,1.089,1.089,0,0,0,.714,1.111,4,4,0,0,0,1.428.188,7.254,7.254,0,0,0,1.954-.336l2.123-.734a.274.274,0,0,1,.2.088.285.285,0,0,1,.09.209q0,.336-1.152.733a17.346,17.346,0,0,1-2.271.6,9.977,9.977,0,0,1-1.6.238,4.163,4.163,0,0,1-1.784-.318,1.475,1.475,0,0,1-.914-1.428m7.767.625a2.134,2.134,0,0,1,.972-1.755,3.183,3.183,0,0,1,1.945-.665,1.194,1.194,0,0,1,.887.247,1.415,1.415,0,0,1,.223.923.245.245,0,0,1,.1.2q0,.249-1.378.5-1.518.216-1.766.257a.785.785,0,0,0,.516.675,2.311,2.311,0,0,0,.9.149,3.979,3.979,0,0,0,.956-.14q.551-.139,1.136-.3a.207.207,0,0,1,.159.079.242.242,0,0,1,.07.159q0,.367-1.3.615a8.787,8.787,0,0,1-1.587.178,3.72,3.72,0,0,1-1.231-.139.96.96,0,0,1-.605-.982m1.022-.853,1.755-.288.229-.039a.17.17,0,0,0,.109-.178c0-.351-.186-.526-.556-.526a1.819,1.819,0,0,0-.962.278,1.2,1.2,0,0,0-.575.754m4.97,1.974a.865.865,0,0,1-.417-.119.347.347,0,0,1-.218-.3v-4.335q0-.307-.039-.754-.089-1.012-.09-1.25a.211.211,0,0,1,.239-.238,1.213,1.213,0,0,1,.536.189c.224.126.336.247.336.367q0,.695-.04,1.7-.087,2.261-.089,2.827,0,.386.025,1c.017.406.024.636.024.69,0,.152-.088.228-.266.228m.883-1.121a2.136,2.136,0,0,1,.971-1.755,3.184,3.184,0,0,1,1.944-.665,1.2,1.2,0,0,1,.889.247,1.415,1.415,0,0,1,.223.923.243.243,0,0,1,.1.2q0,.249-1.379.5-1.518.216-1.766.257a.785.785,0,0,0,.516.675,2.315,2.315,0,0,0,.9.149,3.971,3.971,0,0,0,.956-.14q.551-.139,1.136-.3a.209.209,0,0,1,.16.079.246.246,0,0,1,.069.159q0,.367-1.3.615a8.777,8.777,0,0,1-1.587.178,3.72,3.72,0,0,1-1.231-.139.959.959,0,0,1-.6-.982m1.021-.853,1.755-.288.229-.039a.17.17,0,0,0,.109-.178q0-.526-.556-.526a1.819,1.819,0,0,0-.962.278,1.2,1.2,0,0,0-.575.754m6.954-1.5a1.566,1.566,0,0,1,.931.268.986.986,0,0,1,.428.843,2.068,2.068,0,0,1-1.092,1.7,3.56,3.56,0,0,1-2,.664,1.022,1.022,0,0,1-1.033-.822,5.459,5.459,0,0,1-.149-1.489q0-.653.1-2.777c.033-.709.049-1.267.049-1.678,0-.152.087-.228.258-.228a.765.765,0,0,1,.5.178.563.563,0,0,1,.217.456,9.9,9.9,0,0,1-.119,1.4,22.508,22.508,0,0,0-.268,2.381,4.967,4.967,0,0,1,1.021-.625,2.874,2.874,0,0,1,1.162-.268m-2.183,1.5a1.327,1.327,0,0,0,.283.947,1.278,1.278,0,0,0,.948.293,1.194,1.194,0,0,0,.917-.392,1.358,1.358,0,0,0,.362-.956.922.922,0,0,0-.169-.571.594.594,0,0,0-.505-.223,2.142,2.142,0,0,0-.982.288,3.7,3.7,0,0,0-.853.614m5.624-1.072a1.019,1.019,0,0,1,.195-.581.576.576,0,0,1,.491-.282c.119,0,.213.2.282.591s.214.62.431.679c.047.013.1.03.165.05s.094.072.094.158-.074.178-.223.238a1.1,1.1,0,0,1-.4.089,1.126,1.126,0,0,1-.462-.094.945.945,0,0,1-.361-.282q-.736,1.041-.854,1.249a2.889,2.889,0,0,0-.336.814.768.768,0,0,1-.07.214.174.174,0,0,1-.159.064.721.721,0,0,1-.342-.1c-.122-.066-.184-.145-.184-.238,0-.153.024-.47.07-.953.026-.278.039-.473.039-.585s-.009-.317-.03-.574-.029-.454-.029-.587a.265.265,0,0,1,.094-.223.383.383,0,0,1,.242-.074.758.758,0,0,1,.422.14.4.4,0,0,1,.214.336,3.261,3.261,0,0,1-.045.536c-.03.178-.058.357-.085.536.112-.166.248-.354.406-.566.2-.251.345-.437.437-.556m5.566,2.073a3.5,3.5,0,0,1-1.1.664,3.445,3.445,0,0,1-1.255.238,1.934,1.934,0,0,1-.953-.2.872.872,0,0,1-.446-.813,2.3,2.3,0,0,1,.937-1.7,2.837,2.837,0,0,1,1.841-.819,1.146,1.146,0,0,1,.525.125,1.447,1.447,0,0,1,.447.352,1.873,1.873,0,0,0,.3-.1c.032-.014.126-.063.278-.148l.109,1.1c.026.3.056.6.089.892q.11.755.268.755a.2.2,0,0,1,.229.228q0,.089-.357.288a1.414,1.414,0,0,1-.456.2c-.12,0-.225-.153-.318-.458-.014-.032-.06-.234-.138-.6m-2.718-.357a.576.576,0,0,0,.233.48.842.842,0,0,0,.54.184,2.669,2.669,0,0,0,.982-.257q.695-.3.794-.605a.527.527,0,0,0,.019-.165,1.185,1.185,0,0,1,.01-.173,1.32,1.32,0,0,0-.233-.874,1.059,1.059,0,0,0-.828-.268,1.368,1.368,0,0,0-1.082.511,1.742,1.742,0,0,0-.436,1.165m5.872,1.061c0,.178-.1.268-.315.268a.911.911,0,0,1-.375-.1q-.213-.1-.213-.247c0-.232.013-.516.04-.853q.089-1.151.088-1.449h-.238a1.476,1.476,0,0,1-.535-.069.436.436,0,0,1-.258-.447.214.214,0,0,1,.06-.158.219.219,0,0,1,.167-.061,3.829,3.829,0,0,1,.417.04c.2.026.328.04.388.04,0-.271,0-.491-.008-.655-.021-.668-.032-1.032-.032-1.091a.57.57,0,0,1,.046-.2.192.192,0,0,1,.2-.114.992.992,0,0,1,.471.169c.188.112.283.228.283.348a8.435,8.435,0,0,1-.126.971,4.14,4.14,0,0,0-.063.6c.148,0,.349,0,.605-.014s.412-.015.464-.015c.16,0,.24.078.24.231,0,.113-.194.212-.584.287-.2.039-.44.076-.725.106v2.411Zm1.766-4.395a8.082,8.082,0,0,1-.049-.852c0-.134.076-.2.225-.2a.985.985,0,0,1,.343.094.641.641,0,0,1,.285.184,1.075,1.075,0,0,1,.033.278c.011.165.016.32.016.465a1.188,1.188,0,0,1-.019.278.2.2,0,0,1-.206.159.849.849,0,0,1-.389-.129c-.152-.086-.232-.178-.239-.278m.575,4.663a.83.83,0,0,1-.4-.129c-.152-.086-.228-.182-.228-.287v-1.905a5.136,5.136,0,0,0-.026-.614,1.9,1.9,0,0,0-.093-.407l-.031-.139c0-.132.073-.2.22-.2a1.424,1.424,0,0,1,.535.169q.357.168.357.327c0,.4-.007.77-.021,1.1q-.069,1.715-.069,1.845c0,.159-.083.238-.248.238m3.909-3.541a.624.624,0,0,1,.565.3,2.322,2.322,0,0,1,.229.656l.357,1.6a.365.365,0,0,0,.178.282.187.187,0,0,1,.129.183c0,.12-.1.237-.3.352a1.042,1.042,0,0,1-.5.174q-.317,0-.575-1.374c-.173-.916-.357-1.373-.556-1.373q-.407,0-.972.942a7.824,7.824,0,0,0-.635,1.309.629.629,0,0,1-.07.158.2.2,0,0,1-.168.08.7.7,0,0,1-.372-.12.333.333,0,0,1-.194-.277q0-.288.031-.675.069-.913.069-1.141a5.148,5.148,0,0,0-.04-.526,5.028,5.028,0,0,1-.039-.525c0-.145.069-.218.208-.218a1.26,1.26,0,0,1,.451.178q.333.179.333.278a5.689,5.689,0,0,1-.06.749c-.039.294-.07.518-.09.67a5.4,5.4,0,0,1,.835-1.082,1.754,1.754,0,0,1,1.18-.595m1.885,4.871a1.061,1.061,0,0,1,.208-.521c.14-.215.271-.322.4-.322a.159.159,0,0,1,.149.065.351.351,0,0,1,.04.183v.11a.944.944,0,0,0,.448.813,1.584,1.584,0,0,0,.925.268,1.277,1.277,0,0,0,1.213-.773,3.371,3.371,0,0,0,.3-1.519v-.6a4.134,4.134,0,0,1-1.154.65,3.576,3.576,0,0,1-1.273.253,1.466,1.466,0,0,1-.934-.268,1.052,1.052,0,0,1-.379-.883,2.213,2.213,0,0,1,.823-1.526,2.346,2.346,0,0,1,1.567-.794,2.277,2.277,0,0,1,1.439.525c.106-.065.215-.127.328-.183a3.027,3.027,0,0,1,.336-.144.251.251,0,0,1,.18.278q0,1.815-.06,2.4a4.594,4.594,0,0,1-.694,2.222,2.449,2.449,0,0,1-2.123.972,2.159,2.159,0,0,1-1.091-.338q-.645-.377-.645-.862m.853-3.056a.85.85,0,0,0,.278.69,1.118,1.118,0,0,0,.743.233,2.418,2.418,0,0,0,1.122-.308q.684-.357.684-.834a2.151,2.151,0,0,0-.034-.387.507.507,0,0,0-.076-.229,1.156,1.156,0,0,0-.565-.238,3.52,3.52,0,0,0-.724-.089,1.606,1.606,0,0,0-.962.3,1.022,1.022,0,0,0-.467.862m13.025,1.26q0-.636.03-1.905t.03-1.914c0-.423-.007-.77-.019-1.042a2.4,2.4,0,0,0-.15-1,.182.182,0,0,1,.085-.164.367.367,0,0,1,.2-.055,1.359,1.359,0,0,1,.581.164c.222.11.332.24.332.392q0,.913-.045,1.831c-.03.611-.058,1.259-.089,1.943s-.045,1.259-.045,1.722a.694.694,0,0,1-.079.387.267.267,0,0,1-.229.109.724.724,0,0,1-.412-.129.388.388,0,0,1-.193-.336m-4.273.852a.514.514,0,0,1-.505-.387,3.012,3.012,0,0,1-.142-1.012,8.193,8.193,0,0,1,.04-.822c.026-.271.049-.507.07-.7l-.408.02a1.147,1.147,0,0,1-.669-.208.65.65,0,0,1-.3-.566,1.285,1.285,0,0,1,.009-.173,2.775,2.775,0,0,1,.07-.293,2.178,2.178,0,0,0,.614.238,3.068,3.068,0,0,0,.686.079q0-.971-.06-1.889a2.96,2.96,0,0,0-.14-1,.177.177,0,0,1,.094-.164.409.409,0,0,1,.211-.055,1.351,1.351,0,0,1,.586.164q.329.165.329.392,0,.377-.106,1.587c-.034.4-.054.724-.054.962q.618,0,1.865-.04t1.884-.039a.211.211,0,0,1,.24.238q0,.218-.853.357c-.172.027-.509.066-1.012.119l-2.124.219v.922a10.572,10.572,0,0,1-.081,1.612c-.057.295-.138.441-.243.441m6.594-.525a.638.638,0,0,1-.595-.327,1.4,1.4,0,0,1-.15-.7,6.56,6.56,0,0,1,.049-.754q.12-1.022.12-1.29c0-.173.072-.259.218-.259a1.11,1.11,0,0,1,.44.178c.208.119.313.213.313.278a2.04,2.04,0,0,1-.1.585,5.142,5.142,0,0,0-.248,1.042,1.072,1.072,0,0,0,.055.367.22.22,0,0,0,.232.147,1.427,1.427,0,0,0,1.043-.635,3.146,3.146,0,0,0,.625-1.12.762.762,0,0,1,.278-.472,1.746,1.746,0,0,1,.624-.134c-.013.093-.025.174-.034.244a1.215,1.215,0,0,0-.015.174,9.788,9.788,0,0,0,.123,1.278c.083.569.188.853.313.853a.332.332,0,0,1,.2.071.212.212,0,0,1,.095.178q0,.118-.343.332a1.157,1.157,0,0,1-.491.214q-.178,0-.407-.853-.2-.9-.217-.991a4.034,4.034,0,0,1-.893,1.05,1.953,1.953,0,0,1-1.24.547m9.2-3.274q.6,0,.839,1.121.168.8.335,1.607a.215.215,0,0,1,.247.239c0,.112-.109.233-.328.363a1.129,1.129,0,0,1-.506.193q-.249,0-.516-1.33t-.535-1.329c-.227,0-.493.25-.8.754q-.5.834-.992,1.657a.625.625,0,0,1-.333-.11.3.3,0,0,1-.174-.247,7.07,7.07,0,0,1,.059-.735,6.723,6.723,0,0,0,.059-.754v-.149a.61.61,0,0,0-.04-.248.157.157,0,0,0-.158-.089q-.388,0-.863.735-.456.8-.9,1.6a.7.7,0,0,1-.342-.089.275.275,0,0,1-.165-.248c0-.318.01-.79.03-1.419s.031-1.1.031-1.418a.2.2,0,0,1,.228-.228,1.146,1.146,0,0,1,.516.143.426.426,0,0,1,.278.373,3.255,3.255,0,0,1-.07.575c-.046.238-.08.416-.1.535a5.1,5.1,0,0,1,.764-.843,1.669,1.669,0,0,1,1-.517.491.491,0,0,1,.476.278,1.51,1.51,0,0,1,.1.615v.6a5.4,5.4,0,0,1,.779-1.031,1.629,1.629,0,0,1,1.084-.605m5.438,2.441a3.594,3.594,0,0,1-2.35.9,1.937,1.937,0,0,1-.953-.2.872.872,0,0,1-.446-.813,2.3,2.3,0,0,1,.937-1.7,2.837,2.837,0,0,1,1.84-.819,1.147,1.147,0,0,1,.526.125,1.426,1.426,0,0,1,.446.352,1.88,1.88,0,0,0,.3-.1c.033-.014.125-.063.277-.148l.11,1.1c.026.3.056.6.089.892q.11.755.268.755a.2.2,0,0,1,.229.228c0,.06-.119.156-.358.288a1.412,1.412,0,0,1-.455.2c-.119,0-.225-.153-.318-.458-.013-.032-.059-.234-.14-.6m-2.717-.357a.579.579,0,0,0,.233.48.84.84,0,0,0,.541.184,2.681,2.681,0,0,0,.982-.257q.693-.3.792-.605a.529.529,0,0,0,.019-.165,1.187,1.187,0,0,1,.01-.173,1.32,1.32,0,0,0-.233-.874,1.059,1.059,0,0,0-.828-.268,1.368,1.368,0,0,0-1.082.511,1.742,1.742,0,0,0-.436,1.165m7.2-2.212a.626.626,0,0,1,.566.3,2.364,2.364,0,0,1,.228.656l.358,1.6a.362.362,0,0,0,.178.282.187.187,0,0,1,.128.183c0,.12-.1.237-.3.352a1.051,1.051,0,0,1-.5.174c-.21,0-.4-.459-.574-1.374s-.358-1.373-.556-1.373q-.406,0-.972.942a7.926,7.926,0,0,0-.636,1.309.561.561,0,0,1-.07.158.2.2,0,0,1-.168.08.707.707,0,0,1-.372-.12.332.332,0,0,1-.193-.277q0-.288.03-.675c.047-.609.069-.989.069-1.141a5.077,5.077,0,0,0-.039-.526,5.083,5.083,0,0,1-.04-.525c0-.145.07-.218.209-.218a1.26,1.26,0,0,1,.45.178q.333.179.333.278a5.9,5.9,0,0,1-.06.749c-.04.294-.07.518-.09.67a5.4,5.4,0,0,1,.834-1.082,1.757,1.757,0,0,1,1.18-.595m2.292-1.122a8.049,8.049,0,0,1-.049-.852c0-.134.075-.2.226-.2a.982.982,0,0,1,.342.094.628.628,0,0,1,.285.184,1.043,1.043,0,0,1,.034.278c.01.165.015.32.015.465a1.189,1.189,0,0,1-.019.278.2.2,0,0,1-.2.159.841.841,0,0,1-.389-.129c-.154-.086-.233-.178-.24-.278m.575,4.663a.829.829,0,0,1-.4-.129c-.152-.086-.228-.182-.228-.287v-1.905a5.728,5.728,0,0,0-.025-.614,1.9,1.9,0,0,0-.094-.407l-.031-.139c0-.132.073-.2.22-.2a1.419,1.419,0,0,1,.535.169c.238.112.358.221.358.327,0,.4-.007.77-.021,1.1q-.07,1.715-.07,1.845c0,.159-.082.238-.248.238m2.579-.268c0,.178-.1.268-.313.268a.9.9,0,0,1-.375-.1c-.142-.067-.214-.149-.214-.247,0-.232.014-.516.04-.853q.089-1.151.089-1.449h-.238a1.484,1.484,0,0,1-.536-.069.436.436,0,0,1-.257-.447.21.21,0,0,1,.059-.158.216.216,0,0,1,.167-.061,3.788,3.788,0,0,1,.416.04c.2.026.329.04.389.04,0-.271,0-.491-.008-.655q-.033-1-.032-1.091a.591.591,0,0,1,.044-.2.193.193,0,0,1,.2-.114.987.987,0,0,1,.471.169c.189.112.283.228.283.348a8.415,8.415,0,0,1-.126.971,4.14,4.14,0,0,0-.063.6c.148,0,.349,0,.606-.014s.412-.015.464-.015a.208.208,0,0,1,.239.231c0,.113-.194.212-.584.287-.2.039-.44.076-.725.106v2.411Zm5.188,1.27a.447.447,0,0,1,.2.045.157.157,0,0,1,.09.154.237.237,0,0,1-.168.228c-.021.007-.125.026-.313.06s-.675.154-1.458.362-1.205.312-1.265.312a.429.429,0,0,1-.3-.149.438.438,0,0,1-.147-.308,3.006,3.006,0,0,1,.595-.941c.112-.146.374-.467.783-.964a13.271,13.271,0,0,0-.714-1.577,4.277,4.277,0,0,0-.973-1.359.628.628,0,0,1-.113-.1.842.842,0,0,1-.095-.153c.007-.073.087-.14.239-.2a1.09,1.09,0,0,1,.377-.089,1.163,1.163,0,0,1,.531.119.818.818,0,0,1,.361.377l1.061,2.192a8.5,8.5,0,0,0,.853-1.25,3.122,3.122,0,0,0,.427-1.43.2.2,0,0,1,.059-.147A.2.2,0,0,1,505.6,797a.677.677,0,0,1,.456.258.73.73,0,0,1,.248.477,2.543,2.543,0,0,1-.7,1.2q-.7.849-1.4,1.672a6.413,6.413,0,0,0-1.031,1.509c.443-.08.837-.14,1.18-.18a9.3,9.3,0,0,1,1.071-.059" transform="translate(-416.551 -680.212)"/><path class="b" d="M519.8,694.488c-1.316,6.951,1.049,11.513,4.7,17.11,4.579,7.009,20.327,20.734,10.417,35.414-4.4,6.528-8.939,10.6-16.327,16.139l2.531-.654h36.369v.859l-1.016.139-.77.157-.745.2-.715.246-.686.286-.655.324-.627.357-.6.385-.566.411-.54.435-.51.455-.483.471-.457.486-.435.5-.409.505-.385.513-.365.515-.344.519-.325.517-.307.516-.288.51-.271.5-.255.494-.238.482-.225.468-.209.452-.2.433-.183.413-.169.386-.157.361-.143.331-.134.3-.122.276-.126.289-.127.293-.126.3-.128.3-.192.455-.2.463-.131.308-.134.311-.135.311-.136.31-.138.308-.141.309-.142.307-.144.3-.145.3-.147.3-.151.292-.152.285-.154.28-.156.275-.159.266-.159.258-.16.248-.163.241-.164.231-.165.22-.165.208-.167.2-.167.187-.166.173-.17.166-.175.159-.176.15-.176.138-.178.132-.18.123-.183.115-.182.108-.185.1-.19.095-.192.087-.192.081-.2.074-.2.069-.2.064-.206.057-.211.051-.216.047-.218.041-.221.035-.226.031-.231.025-.234.021-.236.016-.242.01-.245.006h-.248l-.252,0-.254-.008-.26-.011-.262-.016-.267-.02-.352-.03-.372-.038-.4-.045-.423-.049-.445-.055-.465-.057-.483-.058-.5-.058-.513-.057-.526-.054-.538-.049-.44-.034.161-.071.557-.26.557-.271.558-.288.558-.306.558-.325.554-.348.55-.369.542-.393.525-.411.326-.27.341-.292.36-.324.373-.358.375-.392.371-.431.354-.474.334-.524.293-.579.239-.639.157-.7.054-.752-.077-.78-.213-.779-.346-.748-.492-.741-.446-.468-.634-.387-.735-.19-.7.025-.588.169-.464.241-.368.266-.252.237-.331.335-.3.293-.312.291-.322.289-.333.287-.343.28-.35.272-.355.264-.359.25-.365.239-.365.223-.365.207-.363.188-.36.169-.355.147-.348.127-.284.086-.314.081-.342.073-.366.066-.389.057-.411.05-.43.041-.445.033-.461.025-.475.018-.485.011-.5.006h-.5l-.511,0-.516-.01-.519-.014-.52-.017-.524-.02-.523-.022-.521-.022-.517-.025-.515-.022-.508-.023-.5-.021-.494-.02-.486-.016-.478-.012-.466-.008-.455,0-.445,0-.432.01-.417.018-.471.031-.47.038-.465.048-.464.056-.46.065-.46.073-.457.085-.454.093-.449.1-.448.112-.444.121-.443.134-.438.142-.433.153-.431.164-.425.174-.422.184-.417.2-.414.206-.408.219-.4.227-.4.241-.392.252-.388.262-.382.275-.375.286-.369.3-.221.188v-16.8a15.785,15.785,0,0,0,11.736.849c10.424-3.438,13.2-15.441,10.675-21.9-2.739-7.013-10.768-13.013-8.763-19.248-3.921,5.285-6.236,10.712-6.068,16.071.166,5.288,2.815,9.823,5.8,14.107-9.634-4.794-14.794-10.367-16.069-17.741-2.811-16.263,13.487-33.938,24.02-44.109" transform="translate(-405.219 -694.488)"/><path class="b" d="M498.1,797.281V777.234a16.824,16.824,0,0,1,11.914-5.225c3.893-.215,11.355.891,15.3-.427a17.113,17.113,0,0,0,6.315-4.345c.332-.344.768-.521,1.1-.083,1.873,2.441-.614,4.624-2.12,5.854-4.977,4.06-11.823,4.355-14.724,8.26-.521.559,1.146,1.528,1.677,1.12,2.929-4.21,10.616-2.352,14.517-2.055,3.132.262,6.094-.175,8.457-2.549,2.334-2.347,3.809-6.575,5.083-9.421,1.417-3.17,4.316-11.079,11.492-11.816v1.374a26.74,26.74,0,0,0-5.154,5.725,46.116,46.116,0,0,0-4.98,9.951,9.731,9.731,0,0,0-.429,1.353c-.212.559,1.516,1.149,1.776.574,2.083-5.795,4.5-10.9,8.8-15.021v4.591c-3.171,3.025-5.264,7.093-7.1,12.316-.317.843,1.451,1.324,1.794.719a24.006,24.006,0,0,1,4.522-9.22c-2.359,10.227-5.125,15.575-12.392,20.73-13.212,9.371-27.793,2.567-35.72,3.29-4.345.4-7.732,1.676-10.129,4.354" transform="translate(-404.84 -685.575)"/></g><path class="a" d="M416.45,779.037a2.346,2.346,0,0,1,1.117-2.022c.916-.557,2.527-.459,4.318-.459,1.811,0,3.4-.1,4.329.459a3.176,3.176,0,0,1,1.17,2.847v3.006H422.77V779.65c0-.988.013-1.27-.884-1.27s-.822.312-.83,1.27a29.752,29.752,0,0,0,.086,3.326c.152,1.535,6.243,1.1,6.243,4.079v4.2a3.323,3.323,0,0,1-1.243,2.893c-.927.564-2.444.42-4.255.42-1.791,0-3.294.144-4.21-.411a3.338,3.338,0,0,1-1.235-2.9v-4.188h4.615v4.28c0,.929-.093,1.368.83,1.368s.774-.483.774-1.368c0-1.264,0-2.66-.053-3.91-.054-1.288-1.878-1.264-4.478-2.274-.971-.377-1.6-.717-1.624-2.148Z" transform="translate(0 11.786)"/><path class="a" d="M453.673,760.38a2.373,2.373,0,0,1,1.117-2.043c.916-.562,2.528-.463,4.318-.463,1.811,0,3.4-.1,4.329.463a3.228,3.228,0,0,1,1.17,2.876v3.036h-4.615V761c0-1,.013-1.284-.884-1.284s-.822.316-.83,1.284a30.356,30.356,0,0,0,.086,3.358c.152,1.55,6.243,1.111,6.243,4.12v4.24a3.371,3.371,0,0,1-1.243,2.922c-.927.568-2.444.425-4.255.425-1.791,0-3.295.144-4.21-.416a3.385,3.385,0,0,1-1.236-2.931v-4.229h4.616v4.322c0,.939-.093,1.383.83,1.383s.774-.488.774-1.383c0-1.275,0-2.687-.053-3.948-.054-1.3-1.878-1.277-4.478-2.3-.971-.381-1.6-.724-1.624-2.168Z" transform="translate(5.346 9.102)"/><path class="a" d="M477.97,779.607v11.821c0,.548-.055,1.255,1.034,1.255,1.124,0,.985-.75.985-1.255V779.607c0-.508.088-1.277-.985-1.277-1.032,0-1.034.732-1.034,1.277m-4.385-.469c0-2.636,1.958-2.633,5.418-2.658,3.385-.024,5.42.021,5.42,2.658v12.82c0,2.656-2.2,2.728-5.42,2.728s-5.418.119-5.418-2.728Z" transform="translate(8.207 11.775)"/><path class="a" d="M491.986,779.407c0-.822-.262-1.075-1.163-1.075s-.977.524-.977,1.075V791.6c0,.51-.049,1.149.949,1.145,1.12,0,1.19-.36,1.19-1.145v-4.574h-1.257v-1.747h5.67v9.277h-1.914l-.526-1.1h-.141a2.811,2.811,0,0,1-1.52,1.012,10.483,10.483,0,0,1-2.621.2,5.5,5.5,0,0,1-3.4-.709,2.85,2.85,0,0,1-1.047-2.526v-11.8a2.652,2.652,0,0,1,1.175-2.572c.95-.582,2.487-.485,4.314-.485s3.56-.1,4.509.485a2.652,2.652,0,0,1,1.176,2.572v3.04h-4.413Z" transform="translate(9.879 11.788)"/></g></svg>