<svg width="133" height="44" viewBox="0 0 641 182" fill="none" xmlns="http://www.w3.org/2000/svg">
<path d="M531.914 79.1322H511.388V113.15C511.388 122.887 516.514 124.627 523.057 124.627C525.356 124.627 527.849 124.34 530.358 124.006L531.914 139.24C526.541 140.195 519.394 141.019 514.694 141.019C500.572 141.019 488.02 136.049 488.02 118.702V79.14H476.135V64.0916H488.02V47.5446L511.388 40.8901V64.0994H531.914V79.1322Z" fill="#010066"/>
<path d="M469.02 139.481H445.714V91.0824C445.714 83.9542 442.663 80.0097 434.634 80.0097C428.602 80.0097 424.723 82.9215 420.325 86.4235V139.481H397.012V64.0838H419.698V70.7384C427.286 65.598 436.012 62.329 445.451 62.329C460.363 62.329 469.02 71.6701 469.02 85.7402V139.481" fill="#010066"/>
<path d="M349.827 2.1419e-06C338.027 20.0257 343.145 38.2266 331.616 49.8119C322.302 59.122 313.692 58.858 303.572 58.858C300.08 58.858 293.181 59.122 290.316 61.2418C288.667 55.9306 287.962 50.107 287.962 44.524C287.962 34.9576 290.146 26.4628 296.944 19.6142C310.091 6.40606 333.862 2.25959 349.827 2.1419e-06Z" fill="#019934"/>
<path d="M223.573 139.481H200.151V91.0824C200.151 83.9542 197.14 80.0097 189.164 80.0097C183.148 80.0097 179.199 82.9215 174.84 86.4235V139.481H151.511V64.0838H174.151V70.7384C181.786 65.598 190.535 62.329 199.966 62.329C214.832 62.329 223.573 71.6701 223.573 85.7402V139.481Z" fill="#010066"/>
<path d="M146.648 64.0915L109.173 155.368C103.436 169.399 91.8991 179.68 76.158 179.68C68.2371 179.68 64.0715 178.67 58.938 177.506L62.2829 162.45C66.4253 163.412 69.5301 163.801 72.3563 163.801C81.7792 163.801 86.7656 155.717 91.3106 144.777L93.5405 139.473L64.4896 64.0838H89.584L103.219 101.448C104.853 105.96 105.782 110.541 106.564 113.857C107.385 110.541 109.057 105.098 110.691 100.781L124.837 64.0838L146.648 64.0915Z" fill="#010066"/>
<path d="M64.1258 115.41C64.1258 131.77 49.0274 140.77 31.0873 140.77C19.4189 140.77 9.92626 138.829 0 134.83L6.40329 119.587C12.3033 121.971 20.8049 124.627 27.7966 124.627C33.1934 124.627 40.7968 124.006 40.7968 117.351C40.7968 114.253 38.8611 112.646 35.2529 111.621C30.7776 110.293 23.9485 109.097 19.4189 107.862C9.86432 105.207 1.99764 100.198 1.99764 86.206C1.99764 70.6762 15.1604 61.0089 33.2708 61.0089C45.2024 61.0089 52.7826 62.5929 59.5111 64.5652L53.5492 79.8C50.6146 78.4644 42.2679 76.4999 36.4144 76.4999C29.9259 76.4999 25.5435 78.9536 25.5435 82.8904C25.5435 84.8782 26.7746 87.3397 30.1814 88.419C33.8902 89.5837 39.6741 90.7019 44.5133 91.7113C54.486 93.8855 64.1258 99.6781 64.1258 115.41Z" fill="#010066"/>
<path d="M580.856 119.339V105.447C570.086 105.261 559.966 106.333 559.966 116.722C559.966 123.128 565.317 125.1 569.389 125.1C574.298 125.093 577.992 122.639 580.856 119.339ZM603.558 139.473H581.53V133.51C575.847 138.604 568.429 141.011 560.183 141.011C546.223 141.011 536.599 134.216 536.599 120.038C536.599 95.0114 561.476 91.1523 580.864 91.0824V89.0868C580.864 82.8749 578.51 78.4411 567.454 78.4411C560.005 78.4411 551.457 82.1916 545.859 85.546L540.083 71.6546C550.048 66.2114 562.336 62.3289 574.012 62.3289C592.006 62.3289 603.566 70.9247 603.566 85.9731L603.558 139.473Z" fill="#010066"/>
<path d="M362.735 91.7114C363.122 83.4107 358.972 78.2703 350.826 78.2703C342.936 78.2703 338.267 84.0397 336.905 91.7114H362.735ZM386.729 98.9949C386.729 101.526 386.644 104.104 386.528 106.768H336.68C336.905 117.685 342.348 124.223 358.321 124.223C365.328 124.223 373.845 121.001 377.469 118.461L383.617 132.4C373.358 138.006 362.293 141.019 349.928 141.019C326.568 141.019 312.042 125.939 312.042 101.868C312.042 77.4783 331.128 62.3367 351.709 62.3367C377.322 62.3367 386.729 77.4007 386.729 98.9949Z" fill="#010066"/>
<path d="M288.683 151.858C288.683 145.67 283.797 143.457 278.787 143.457H258.292C255.21 145.243 250.363 149.148 250.363 154.234C250.363 160.92 259.283 165.307 269.759 165.307C280.63 165.315 288.683 160.291 288.683 151.858ZM282.519 87.1145C282.519 80.8017 279.081 75.6147 271.308 75.6147C264.254 75.6147 259.81 81.617 259.81 87.1145C259.81 93.4119 263.789 98.56 270.866 98.56C278.671 98.56 282.519 93.3808 282.519 87.1145ZM312.097 148.76C312.097 170.743 290.254 180.899 268.644 181C249.659 181.093 231.401 175.666 231.401 157.402C231.401 148.815 238.997 143.1 243.55 140.11C241.026 138.666 238.703 137.501 236.728 135.257C234.63 132.881 232.973 129.394 232.973 123.547C232.973 116.202 239.431 109.33 247.305 104.982C242.899 102.668 237.154 98.9327 237.154 86.6098C237.154 70.5675 252.361 62.0805 272.159 62.0805C289.054 62.0805 305.237 66.1338 305.237 85.9731C305.237 104.912 287.482 111.822 269.581 111.822C266.205 111.822 263.178 111.318 260.259 110.704C258.362 111.784 254.537 114.253 254.537 117.134C254.537 122.911 262.427 123.742 265.988 123.742H284.548C301.683 123.757 312.097 132.112 312.097 148.76Z" fill="#010066"/>
<path d="M622.544 123.175V118.943H625.533C627.577 118.943 628.374 119.929 628.374 121.001C628.374 122.616 627.321 123.175 626.168 123.175H622.544ZM631.882 121.001C631.882 118.562 630.658 116.233 625.3 116.233H619.006V132.982H622.544V125.846H624.286L628.351 132.982H631.913L627.507 125.745C631.146 125.31 631.882 123.563 631.882 121.001ZM624.991 136.864C618.742 136.833 613.469 132.05 613.469 124.728C613.469 117.289 618.742 112.568 624.991 112.545C631.255 112.568 636.636 117.444 636.636 124.728C636.636 131.918 631.247 136.833 624.991 136.864ZM624.991 109.679C616.683 109.679 609.962 116.373 609.962 124.728C609.962 133.052 616.683 139.869 624.991 139.869C633.268 139.869 640.019 133.052 640.019 124.728C640.019 116.373 633.268 109.679 624.991 109.679Z" fill="#010066"/>
</svg>
